<?xml version="1.0" encoding="utf-8"?>
<!-- Generator: Adobe Illustrator 19.0.0, SVG Export Plug-In . SVG Version: 6.00 Build 0)  -->
<svg version="1.1" id="Слой_1" xmlns="http://www.w3.org/2000/svg" xmlns:xlink="http://www.w3.org/1999/xlink" x="0px" y="0px"
	 viewBox="265.8 191.9 685.7 465.5" style="enable-background:new 265.8 191.9 685.7 465.5;" xml:space="preserve">
<style type="text/css">
	.st0{fill:#FFFFFF;stroke:#FFFFFF;stroke-width:5;stroke-miterlimit:10;}
</style>
<g transform="translate(0.000000,546.000000) scale(0.100000,-0.100000)">
	<path class="st0" d="M4840,3507.1c-57-31-103-46-141-46c-26,0-42-5-45-15c-4-8-11-15-16-15c-6,0-25-7-44-16c-38-18-43-17-49,15
		c-9,49-35,51-35,2c0-30-33-61-67-61c-10,0-27-7-37-15c-11-8-31-15-46-15c-14,0-34-6-45-14c-11-7-36-16-56-20c-32-6-37-3-47,19
		c-14,31-36,23-28-10c7-27-5-38-59-55c-22-7-56-18-75-25s-53-17-74-21c-42-10-70-39-50-52c15-9,17-233,4-300c-5-26-14-134-20-241
		c-5-107-14-220-20-251c-17-95-11-353,9-373c6-6,11-32,11-58s7-82,15-124c10-53,11-83,5-96c-6-10-6-20-1-23c4-3,11-31,14-63
		c6-52,4-60-15-75c-21-16-22-19-9-70c7-29,22-60,33-69c12-9,22-30,23-50c9-128,39-308,56-335c10-17,19-36,19-41c0-13-205-23-285-14
		c-56,6-60,8-66,36c-11,46-36,109-58,146c-11,19-29,52-41,74s-34,54-50,70c-16,17-30,41-32,55c-2,20-10,26-48,32
		c-107,19-213-31-261-124c-14-28-26-38-43-38c-13,0-44-11-67-25c-24-14-52-25-61-25c-11,0-24-14-32-35c-12-28-21-35-42-35
		c-15,0-33,8-40,18c-12,15-15,15-24,2c-12-18-3-69,16-91c21-24,17-49-7-49c-18,0-21,5-17,29c4,27,2,29-35,35c-53,9-64-3-49-53
		c9-27,17-38,30-37s17-7,17-39c0-35-3-40-25-43c-13-2-33-10-44-18s-28-14-37-14c-34,0-50-34-43-88c8-60,32-87,68-78c16,4,26,1,30-9
		c7-19-2-72-16-102c-8-17-8-30,1-50c9-19,13-74,12-174c-1-103,3-159,14-195c8-27,15-64,15-82s7-46,15-61c8-16,17-47,21-70
		s11-44,15-47c5-3,9-16,9-30s7-27,14-30c8-3,22-28,31-55c12-34,28-58,53-77c20-15,45-37,57-48c14-14,41-24,76-29c30-4,60-12,67-18
		c7-5,94-12,201-15c164-4,192-3,212,12c13,9,34,16,47,16c12,0,51,20,85,45s90,66,124,90c44,31,64,53,68,72c3,16,16,47,28,71
		c25,48,27,106,5,154c-9,18-18,77-22,131c-3,53-10,106-16,117c-5,10-10,38-10,62s-7,79-16,123c-25,130-56,408-47,430
		c2,7,21,13,41,13c104-2,492,16,503,22c8,6,8,15-2,36c-11,23-22,30-52,32c-32,3-37,0-37-17c0-26-18-28-27-3c-10,27-24,32-88,32
		c-33,0-71,6-85,13c-23,12-25,18-22,65c2,29-1,58-6,65c-6,7-14,44-17,82c-3,39-13,108-21,155c-7,47-14,115-14,151c0,37-5,91-11,120
		c-6,30-12,95-14,144c-1,50-9,104-16,122c-11,28-11,34,6,52c15,17,30,21,84,21c36,0,98,7,136,15c39,8,107,17,151,21c74,6,81,8,76,26
		c-9,37-47,44-105,20c-29-12-67-22-85-22c-38,0-37-2-16,125c8,50,17,110,19,135s7,60,10,78s3,37-1,43c-10,16-7,460,3,470
		c4,4,26,4,48-1s74-10,116-10c53,0,80-4,88-14c11-13,3-143-15-248c-3-20-1-52,5-70c15-48,18-275,4-289c-9-9-16-9-26-1
		c-7,6-51,12-97,14l-85,3v30c0,27,3,30,35,33c45,4,55,15,38,41c-16,27-73,29-87,4c-5-10-10-42-12-72c-4-53-3-55,26-64
		c17-5,44-15,62-23c37-17,72-18,109-4c39,15,54-2,54-65c0-38-4-55-15-59c-9-3-15-18-15-36c0-27,2-30,25-24l25,6v-436
		c0-381,2-436,15-436c8,0,15,3,15,8c0,4,2,239,4,522c3,335,8,525,15,543c16,40,49,35,96-13c36-37,41-39,52-24c7,10,35,25,63,35
		c49,17,50,17,61-2c10-20,6-490-7-731c-7-135,4-161,35-87c28,63,37,167,45,518c4,134,11,264,18,288c24,99-12,504-54,603l-15,35
		l-8-38c-11-54-23-54-30,0c-3,27-13,64-20,83c-8,19-17,54-20,78c-8,51-30,52-31,1c-2-108-5-113-42-79c-20,19-24,20-51,5
		c-41-21-78-19-91,4c-5,11-10,44-11,73c0,29-4,77-8,107c-7,46-5,57,11,73c10,10,29,18,43,18s25,4,25,8c0,5,18,14,41,21l40,12l-24,20
		c-30,23-43,24-51,4c-3-8-12-15-20-15c-22,0-109-43-119-57c-4-7-25-13-45-13c-20-1-48-7-62-15s-37-14-51-15c-15,0-40-7-55-15
		c-16-8-39-15-50-15c-12,0-27-6-33-14c-6-7-33-16-59-20c-26-3-64-9-84-12c-31-5-38-3-38,10c0,9,7,16,15,16c12,0,61,21,117,51
		c36,19,130,50,263,87c59,16,71,23,73,43c5,33,20,49,47,49c12,0,29,10,37,22c13,20,18,21,41,11c14-7,27-22,29-35c4-28,35-26,59,4
		c14,18,17,18,28,4c17-20,37-21,44-2c6,15,103,66,125,66c6,0,13-13,17-30c4-16,12-30,19-30c20,0,58,41,52,56c-6,16,12,18,48,4
		c29-10,56-57,56-95c0-42,35-32,54,15c20,50,38,58,90,37c23-8,55-20,71-26c52-18,318-69,390-75c34-3,120-14,241-32c18-2,48-16,68-29
		l37-25l6,30c3,17,9,30,14,30c10,0,23-85,16-104c-7-17-67-29-101-20c-19,4-28,0-41-20c-14-22-20-23-41-14c-18,8-21,14-13,24
		c13,15-2,20-91,29c-36,4-69,11-75,15c-19,14-145,22-145,9c0-15,30-38,51-39c8,0,26-12,40-26c28-30,65-48,95-45c32,3,133-28,180-55
		c22-13,50-24,62-24c28,0,52-26,52-57c0-14,6-46,14-72c38-121,72-273,80-351c2-25,9-70,15-100c24-131,42-371,44-610l2-255h-120h-120
		l-3,225c-1,124-7,293-12,375c-19,278-30,550-25,617c4,52,2,67-10,72c-18,7-21,60-2,54c6-3,14-15,16-29c1-13,7-26,12-29
		c4-3,11-37,15-75c3-39,12-83,19-100c7-16,16-68,19-115c14-206,25-320,31-330c20-32,26,14,24,162c-3,155-2,161,20,177
		c28,21,19,51-16,51c-17,0-24,5-22,18c1,9,0,24-4,32c-18,50-37,122-37,143c0,14-7,30-15,37s-15,20-15,30c0,9-13,31-30,48
		c-16,17-32,43-36,57c-7,30-28,28-32-3c-5-31-31-27-71,10c-33,31-34,31-63,15c-20-11-52-17-98-17c-64,0-68-1-63-21c3-11,12-23,19-26
		c8-3,14-13,14-22c0-10,10-22,23-28c18-9,28-6,49,11c21,16,38,20,71,18l44-4l7-116c3-65,9-144,12-177c5-56,4-62-23-90
		c-24-27-28-39-28-92c0-34,3-65,8-69c4-4,7,11,7,34c0,30,4,42,14,42c8,0,18-5,22-11c6-10,14-153,18-319l1-45l-80-6
		c-44-3-90-11-102-17c-31-17-70-15-77,4c-3,8-3,32,0,52s-2,136-10,257c-9,121-16,275-16,342s-3,128-6,137c-6,16-39,21-68,10
		c-20-8-21-121-4-324c6-74,12-163,12-197c1-34,6-67,12-73c8-8,10-38,7-88c-4-64-1-85,16-126c20-46,20-50,5-67c-10-11-25-19-34-19
		c-23,0-58-30-43-36c8-4,10-17,6-37c-7-40-15-49-56-63l-32-12l28-11c35-14,31-31-11-52c-35-18-32-29,8-29c51,0,88-20,95-50
		c3-16,13-34,21-41c22-18,17-37-16-54c-40-21-38-33,7-41c20-4,48-13,62-20c14-8,35-14,46-14c12,0,25-4,30-9c26-24,109-29,203-14
		c79,14,102,14,150,3c31-7,64-16,72-20s55-3,104,2c64,6,98,5,120-3c21-8,133-13,336-15c168-2,512-5,765-8s476-9,495-14
		c19-6,56-13,83-17c57-8,205-82,269-136c26-21,50-39,55-39c4,0,21-11,37-25c237.8-316,387.9-510.8,39-7c-9,26-45,71-108,136
		c-85,86-184,144-305,179c-61,18-594,36-1280,43l-375,4l3,223c2,128-1,260-8,312c-6,50-15,128-20,175c-16,147-60,392-79,443
		c-6,16-11,42-11,58c0,17-5,40-12,52c-6,12-15,38-19,57c-10,49-27,96-56,157c-14,29-23,60-19,68c9,25,37,30,52,11c9-13,17-15,31-8
		c10,5,44,13,76,16c56,7,80,26,33,26c-36,0-45,19-48,100l-3,75l-50,6c-172,22-233,31-260,39c-16,5-61,12-100,15c-38,4-81,11-95,16
		s-64,14-110,19c-47,5-123,17-170,25c-47,9-116,21-155,27c-38,5-78,14-88,19c-10,6-42,12-70,15c-29,3-70,9-92,14
		C4957,3518.1,4866,3521.1,4840,3507.1z M4532,3071.1c-4-121-9-128-85-100c-46,17-68,20-126,14l-69-6l-21,40c-32,62-11,78,154,114
		c28,6,59,17,70,25c11,7,34,12,50,11l30-3L4532,3071.1z M4171,2923.1c-7-76-11-215-10-309c3-134,1-174-10-187c-12-14-11-19,6-35
		s19-34,21-142c1-68,5-131,7-140c3-9,2-26-3-38c-7-21-15-23-110-25c-56-1-106,1-112,4c-12,7-18,166-7,196c4,11,25,30,47,43
		c34,19,45,21,76,12c23-6,43-7,53-1s11,10,4,10s-22,9-33,20c-18,18-20,32-18,105c2,70-1,87-16,104c-11,12-24,21-31,21
		c-6,0-17,11-24,24c-11,20-10,48,4,162c9,76,15,157,12,180c-6,58-8,56,97,94c23,8,26,13,17,24c-10,11-8,17,6,25
		C4180,3088.1,4184,3066.1,4171,2923.1z M5671,2908.1c-1-12-15-9-19,4c-3,6,1,10,8,8C5666,2917.1,5671,2912.1,5671,2908.1z
		 M4686,2884.1c9-10,38-25,63-33c53-17,49-3,76-260c9-85,18-173,20-195c7-60-2-68-61-55c-27,6-74,11-104,9c-30-1-59-1-65,0
		s-9,98-8,273c1,150,2,274,2,276C4612,2909.1,4672,2897.1,4686,2884.1z M4040,2410.1c0-75-1-79-22-79c-48,0-53,12-39,87
		c14,78,27,99,47,82C4036,2492.1,4040,2464.1,4040,2410.1z M5866,1859.1c-3-20,1-87,9-147c14-100,14-113,0-141l-16-30h-135
		c-76,0-144,5-155,11c-16,8-19,19-18,54c2,24-3,50-10,59c-8,10-15,53-17,115l-3,100l27,5c15,4,79,10,143,15s125,13,135,19
		C5854,1935.1,5873,1906.1,5866,1859.1z M3443,1271.1c71,0,87-13,47-38c-30-19-16-32,23-21c42,12,47,11,47-4c0-8,9-22,20-32
		c24-22,26-41,4-49c-12-5-15-14-11-35c6-28-15-63-44-73c-7-2-9-10-5-16c4-7,16-10,27-7c15,5,33-7,75-48l55-54l-17-37
		c-25-51-47-54-86-12c-32,35-58,47-58,26c0-5,9-14,20-20s20-17,20-25s9-15,20-15s20-4,20-9c0-13,34-23,54-15c9,3,16,12,16,20
		s9,23,20,34c25,25,51,16,83-27c19-26,22-40,18-75c-5-37-10-43-31-46c-19-2-31,6-49,33c-13,19-30,35-37,35c-24,0-15-18,26-57
		c44-42,47-54,25-97c-8-15-15-35-15-42c0-8-7-17-16-21c-11-4-31,11-65,48c-41,46-49,51-49,32c0-13,4-23,9-23s18-15,30-32
		c11-18,26-40,32-48c8-12,5-25-17-58s-33-42-57-42c-20,0-30,6-34,20c-3,11-9,20-14,20c-16,0-10-19,13-40c14-13,22-33,23-53
		c0-24,4-31,16-29c9,1,29-14,45-35c15-21,36-44,46-51s18-19,18-26c0-7,9-21,20-31s20-24,20-31c0-8,9-19,20-26s20-22,20-34
		c0-19,31-39,43-28c12,12-9,57-30,67c-13,6-26,21-29,33s-12,25-20,28s-14,19-14,36c0,25-4,30-25,30c-17,0-28,7-34,23
		c-5,12-18,31-30,41c-26,24-27,48-2,70c11,10,25,31,31,47c15,36,34,37,57,3c10-14,26-33,36-42c9-9,17-29,17-44c0-23,4-28,23-28
		c16,0,28-9,37-27c27-58,28-79,9-119c-22-46-23-54-8-54c6,0,13,9,16,20c9,35,33,23,35-17c4-93-8-126-35-99c-23,23-32,1-12-30
		c9-13,13-29,10-34s0-18,6-28c15-23,6-58-24-94l-23-28l-26,25c-15,14-31,25-37,25c-5,0-19,16-30,36c-12,20-24,34-28,31
		c-3-3,4-18,16-33c11-15,21-35,21-44c0-10,7-23,15-30c25-21,17-46-23-74c-46-31-65-33-83-5c-10,14-20,18-32,13c-16-6-16-8-2-24
		c21-23,11-44-29-58c-45-17-57-15-90,13l-29,23l-36-24c-44-30-64-30-84-1c-13,20-18,21-46,10c-25-9-39-9-65,2c-18,8-43,11-54,8
		c-15-3-24,0-28,11c-3,9-18,16-33,16c-35,1-65,27-96,85c-27,52-32,104-12,136c10,17,9,22-4,29c-40,23-106,249-95,324
		c7,48,27,59,35,20c2-10,14-32,27-47c13-16,24-39,24-53c0-28,52-141,78-171c29-33,51-41,91-31c29,7,39,16,47,43c8,25,8,37,0,45
		s-6,15,9,26c62,45,58,310-6,450c-11,23-19,46-19,51c0,18-27,64-46,78c-37,28-114,8-114-28c0-6-6-18-14-26c-22-26-47-111-56-189
		c-8-74-27-111-50-97c-8,5-11,49-9,150c2,107-1,147-10,159c-11,13-11,19-1,31c6,8,9,19,5,25c-10,17,5,110,19,110c6,0,20,16,30,35
		c11,19,24,35,29,35s7,13,4,30c-8,36,21,92,43,85c17-5,27,1,55,33c16,20,17,25,5,32c-8,5-11,12-8,16c4,3,15-1,24-11
		c15-15,19-15,28-3c6,8,21,20,34,27c12,6,22,17,22,24c0,10,19,13,70,11c39,0,70,3,70,7c0,5-15,9-34,9c-79,0-87,25-18,58
		c32,15,58,21,82,17C3359,1273.1,3405,1271.1,3443,1271.1z M3648,1039.1c5-7,13-24,17-38s15-30,24-37c15-11,14-12-1-18
		c-12-5-31,4-58,25c-45,35-44,34-30,61C3612,1054.1,3633,1057.1,3648,1039.1z M2788,799.1c7-7,12-25,12-41c0-25-3-28-27-25
		c-20,2-29,9-31,26C2735,805.1,2760,827.1,2788,799.1z M3840,653.1c0-14-11-21-26-15c-21,8-17,23,6,23
		C3831,661.1,3840,657.1,3840,653.1z M3147,629.1c13-12,23-32,23-44c0-13,5-26,10-29c14-9,12-59-2-74c-11-10-9-15,5-25
		c15-12,16-14,2-20c-20-7-22-138-2-155c18-14,10-69-15-101c-17-21-67-50-88-50c-12,0-63,103-78,160c-20,75-23,188-6,224
		c8,16,14,41,14,56C3010,638.1,3098,675.1,3147,629.1z M3822,564.1c20-42,20-48,7-91c-17-55-52-71-68-30c-5,13-18,32-30,42
		c-28,25-27,37,9,90C3777,629.1,3792,627.1,3822,564.1z M3864,385.1c14-36,4-43-28-19c-10,7-15,18-11,24
		C3834,406.1,3857,403.1,3864,385.1z M3220,351.1c0-25-18-36-26-16c-8,21,3,49,16,41C3215,373.1,3220,361.1,3220,351.1z"/>
	<path class="st0" d="M4360,3086.1c0-8,7-15,15-15s15,7,15,15s-7,15-15,15S4360,3094.1,4360,3086.1z"/>
	<path class="st0" d="M3438,1174.1c-20-5-23-18-8-28c12-7,50,12,50,25C3480,1181.1,3468,1182.1,3438,1174.1z"/>
	<path class="st0" d="M3522,1139.1c6-18,28-21,28-4c0,9-7,16-16,16S3520,1146.1,3522,1139.1z"/>
	<path class="st0" d="M3200,1106.1c0-11,11-15,40-15s40,4,40,15s-11,15-40,15S3200,1117.1,3200,1106.1z"/>
	<path class="st0" d="M3307,1115.1c-10-11,3-24,24-24c23,0,25,15,3,24C3315,1122.1,3315,1122.1,3307,1115.1z"/>
	<path class="st0" d="M3378,1069.1c9-9,15-9,24,0s7,12-12,12S3369,1078.1,3378,1069.1z"/>
	<path class="st0" d="M3462,1049.1c5-15,48-24,48-10c0,10-23,22-42,22C3463,1061.1,3460,1055.1,3462,1049.1z"/>
	<path class="st0" d="M3372,996.1c-6-14-10-25-7-25c7,0,35,32,35,41C3400,1030.1,3383,1021.1,3372,996.1z"/>
	<path class="st0" d="M3412,929.1c5-15,48-24,48-10c0,10-23,22-42,22C3413,941.1,3410,935.1,3412,929.1z"/>
	<path class="st0" d="M3470,831.1c0-19,3-21,12-12s9,15,0,24S3470,850.1,3470,831.1z"/>
	<path class="st0" d="M3426,782.1c-14-5-16-10-7-15c15-9,41-1,41,14C3460,792.1,3453,793.1,3426,782.1z"/>
	<path class="st0" d="M3599,736.1c-3-5-9-23-13-40c-7-28-6-29,9-14c9,9,15,27,13,40S3602,742.1,3599,736.1z"/>
	<path class="st0" d="M3477,724.1c-11-11,34-53,57-53c18,0,16,4-12,30C3485,734.1,3486,734.1,3477,724.1z"/>
	<path class="st0" d="M3490,540.1c-10-18-9-20,7-17c10,2,19,11,21,21C3523,568.1,3503,565.1,3490,540.1z"/>
	<path class="st0" d="M3741,323.1c-14-26-7-42,10-25c6,6,9,19,7,29C3755,344.1,3753,344.1,3741,323.1z"/>
	<path class="st0" d="M3526,296.1c-9-14-23-25-31-25c-16,0-20-15-7-24c10-6,37,15,51,42C3556,322.1,3546,327.1,3526,296.1z"/>
	<path class="st0" d="M3631,185.1c-19-27-30-34-50-32c-16,2-30,12-36,26c-5,12-13,22-17,22c-11,0,9-49,28-67c8-9,13-21,10-28
		c-3-8,2-16,10-19c9-3,14,1,14,12c0,9,20,37,45,61c24,24,42,48,39,53C3665,227.1,3656,222.1,3631,185.1z"/>
	<path class="st0" d="M3610,42.1c0-20,17-37,27-28c7,8-7,47-18,47C3614,61.1,3610,52.1,3610,42.1z"/>
	<path class="st0" d="M3721,52.1c-7-5-11-15-9-22c3-10,8-7,17,9C3742,63.1,3741,65.1,3721,52.1z"/>
	<path class="st0" d="M3646,4.1c-3-4-6-15-6-25c0-24,33-21,38,3C3681-0.9,3657,15.1,3646,4.1z"/>
	<path class="st0" d="M3500-74.9c0-20,18-54,29-54c20,0,17,27-5,47C3506-64.9,3500-63.9,3500-74.9z"/>
	<path class="st0" d="M4794,3312.1c-29-16-30-16-11-34c18-18,20-18,38-1c19,17,25,40,12,47C4828,3326.1,4811,3320.1,4794,3312.1z"/>
	<path class="st0" d="M4960,3261.1c0-26-27-37-51-22c-27,17-38,15-76-14c-26-19-33-32-33-58c0-36,26-69,35-45c3,8,4,28,2,44l-2,30
		l50-3c28-2,54-8,60-13c5-5,15-9,22-9c16,0,18,95,3,105C4965,3279.1,4960,3273.1,4960,3261.1z"/>
	<path class="st0" d="M5046,3269.1c-2-7-4-20-4-28s-3-27-7-42c-6-25-5-27,52-38c32-6,74-16,93-21s57-9,83-9c27,0,56-4,66-10
		c10-5,56-12,102-15c46-4,95-11,109-15c38-14,103-16,107-5c2,6-16,21-40,34s-54,39-66,57c-22,32-27,34-78,34c-30,0-67,6-81,14
		c-15,8-68,19-119,25s-99,14-107,17c-25,10-20-32,6-50c22-15,20-16-30-16c-44,0-52,3-52,19c0,10,8,22,17,25c19,8,9,21-25,31
		C5058,3280.1,5048,3278.1,5046,3269.1z"/>
	<path class="st0" d="M6274,3210.1c-12-20,11-30,45-18c41,15,62,0,43-31c-11-17-9-20,19-28l32-8l-2-165c-2-144,0-167,14-179
		c25-21,48,13,41,60c-3,19-6,106-6,193v158l-32,13C6388,3222.1,6284,3225.1,6274,3210.1z"/>
	<path class="st0" d="M4902,3149.1c6-18,28-21,28-4c0,9-7,16-16,16S4900,3156.1,4902,3149.1z"/>
	<path class="st0" d="M4992,3091.1c-11-31,1-100,17-100c19,0,29,56,18,94C5013,3129.1,5005,3130.1,4992,3091.1z"/>
	<path class="st0" d="M5140,3031.1c0-6,40-10,103-9c84,1,94,3,57,10C5235,3043.1,5140,3043.1,5140,3031.1z"/>
	<path class="st0" d="M5446,2986.1c9-24,44-39,57-26c14,14,1,26-35,35C5446,3000.1,5442,2998.1,5446,2986.1z"/>
	<path class="st0" d="M4960,2881.1c0-20,60-40,120-40c71,0,78,17,14,37C5046,2892.1,4960,2895.1,4960,2881.1z"/>
	<path class="st0" d="M5343,2848.1c-44-17-105-84-98-108c8-23-11-59-31-59s-27,21-16,50c6,17,3,33-12,61c-12,22-24,39-27,39
		c-19,0-38-131-44-295c-7-183-15-215-51-215c-6,0-29-17-49-37l-38-38l29-12c64-27,121-9,171,53c22,27,37,37,63,38c18,1,35,7,38,14
		c5,17,42,15,49-3c3-9-3-22-13-31c-18-14-18-15,4-9c14,4,31-1,48-14c15-12,37-21,50-21c12,0,26-4,29-10c3-5,10-10,16-10
		c5,0,9,5,9,10c0,6-7,10-17,10c-15,0-14,2,2,20c17,19,17,20-9,30c-15,5-39,23-53,40c-20,24-33,30-63,30h-38l-4,83
		c-4,94,10,291,23,325c7,17,17,22,46,22c34,1,83,27,83,44C5440,2865.1,5377,2860.1,5343,2848.1z M5228,2649.1c7-7,12-23,12-36
		s4-32,10-42c19-35,2-53-47-47c-25,2-49,9-54,14c-10,10,8,73,20,73c4,0,13,11,19,25C5201,2664.1,5210,2667.1,5228,2649.1z
		 M5223,2366.1c1-5-6-11-15-13c-11-2-18,3-18,13C5190,2383.1,5220,2384.1,5223,2366.1z M5105,2276.1c0-26-52-35-62-10
		c-7,20,14,36,42,33C5097,2297.1,5105,2288.1,5105,2276.1z"/>
	<path class="st0" d="M3681,2223.1c-6-11-23-23-38-27c-37-9-51-32-46-76l5-37l-84-41c-90-43-117-63-231-163
		c-125-111-162-152-224-253c-35-57-102-241-114-315c-22-124-22-133-8-128c8,3,15,14,17,25c2,12,12,29,22,38c14,12,17,25,13,51
		c-4,24,3,53,23,101c63,149,142,283,168,283c7,0,36,27,65,60s61,60,70,60c16,0,33,14,83,70c29,32,71,61,130,89c27,13,56,36,67,54
		c36,58,139,157,164,157c51,0,63,45,15,53c-18,3-45,9-60,12C3698,2241.1,3689,2238.1,3681,2223.1z"/>
	<path class="st0" d="M5410,2181.1c0-5,11-10,25-10s25,5,25,10c0,6-11,10-25,10S5410,2187.1,5410,2181.1z"/>
	<path class="st0" d="M4155,1839.1c-4-9-2-25,3-35c10-17,11-17,17-1c4,9,2,25-3,35C4162,1855.1,4161,1855.1,4155,1839.1z"/>
	<path class="st0" d="M4340,1771.1c0-35,20-81,31-74c10,6,12,65,3,88C4363,1813.1,4340,1803.1,4340,1771.1z"/>
	<path class="st0" d="M5284,1756.1c-8-20,4-35,27-35c22,0,24,8,5,33C5300,1775.1,5291,1776.1,5284,1756.1z"/>
	<path class="st0" d="M5100,1741.1c-11-7-4-10,28-11c23-1,47-2,54-3c6-1,13,5,16,12C5203,1754.1,5123,1756.1,5100,1741.1z"/>
	<path class="st0" d="M3440,1722.1c-38-11-10-20,40-14c34,5,40,8,25,14C3481,1731.1,3473,1731.1,3440,1722.1z"/>
	<path class="st0" d="M3827,1715.1c-4-4-7-11-7-16c0-13,50-6,53,7C3875,1718.1,3837,1725.1,3827,1715.1z"/>
	<path class="st0" d="M3237,1625.1c-4-4-7-14-7-23c0-11,3-12,11-4c6,6,10,16,7,23C3246,1627.1,3241,1629.1,3237,1625.1z"/>
	<path class="st0" d="M3435,1581.1c-3-5,3-10,14-10c12,0,21,5,21,10c0,6-6,10-14,10S3438,1587.1,3435,1581.1z"/>
	<path class="st0" d="M4390,1546.1c0-15,4-24,10-20c6,3,10,12,10,20s-4,17-10,20C4394,1570.1,4390,1561.1,4390,1546.1z"/>
	<path class="st0" d="M5295,1531.1c-43-5-29-16,20-15c105,4,128,6,122,12C5428,1536.1,5347,1538.1,5295,1531.1z"/>
	<path class="st0" d="M5350,1471.1c-158-21-191-40-337-196c-52-55-96-94-102-90c-8,5-6,16,4,36c19,36,19,49,1,56
		c-15,6-115-36-116-48c0-4,13-14,28-22c16-8,34-22,41-30c11-13,38-16,140-16c165-1,230-15,331-71c8-5,29-15,45-23
		c35-17,170-142,191-177c7-13,24-45,36-71l22-48h64c71,0,76,15,7,22c-56,7-80,33-115,124c-12,33-135,165-185,200
		c-67,45-155,84-193,84c-21,0-42,4-47,9c-6,5-23,11-40,13c-19,2-29,8-27,17c1,7-2,19-7,25c-8,9,3,25,37,58c71,69,101,81,252,97
		c74,8,77,8,155-29c91-43,186-130,238-217c19-31,39-53,52-55c14-2,23-14,30-44c11-46,69-159,96-190c19-20,19-21-6-44
		c-14-13-25-28-25-34s27-29,61-51c33-22,63-44,66-49s-5-17-18-27l-24-19l23-6c16-5,22-14,22-34c0-19,9-36,28-50c15-12,29-34,32-48
		c4-20,11-26,25-24c10,2,25-4,33-15c13-17,14-16,9,7c-3,14-10,43-16,65c-12,48-1,66,29,47c31-19,211-16,255,5c46,22,46,56,0,61
		c-16,2-48,9-70,17c-22,7-85,16-140,20c-101,6-135,19-135,53c0,23-43,146-52,150c-4,2-8,8-8,13c0,13-45,104-70,144
		c-11,17-24,40-30,53c-5,12-16,22-25,22c-8,0-15,4-15,10c0,10-155,168-200,205c-71,58-186,114-243,119
		C5434,1477.1,5386,1475.1,5350,1471.1z"/>
	<path class="st0" d="M4952,1404.1c-6-2-10-9-6-14c8-14,57-10,78,6c19,14,17,15-20,14C4983,1410.1,4959,1407.1,4952,1404.1z"/>
	<path class="st0" d="M4755,1323.1c-21-15-50-37-63-49s-33-25-43-28c-44-14-15-26,59-23c71,3,77,5,74,24c-1,11,4,34,13,50
		c16,31,19,54,8,53C4798,1350.1,4777,1338.1,4755,1323.1z"/>
	<path class="st0" d="M4164,1171.1c-38-14,17-27,113-28c56,0,112-6,124-12c11-7,31-9,44-6s27,1,30-4c7-11,55,32,55,48
		C4530,1177.1,4187,1179.1,4164,1171.1z"/>
	<path class="st0" d="M4553,1125.1c-11-29,11-36,61-19c40,14,52,14,84,3c20-7,40-17,44-23c13-18,9-58-9-77c-21-23-10-35,17-17
		c18,12,22,26,24,82l2,67h-108C4579,1141.1,4558,1138.1,4553,1125.1z"/>
	<path class="st0" d="M4812,1061.1l3-25l150-3c97-2,166-8,194-17c25-8,52-15,62-15s32-8,51-17c18-9,47-23,63-32
		c42-21,135-106,135-124c0-15,43-66,52-61c25,15-21,86-112,172c-52,51-164,116-184,109c-7-3-17-2-22,3c-16,16-146,32-272,33l-123,2
		L4812,1061.1z"/>
	<path class="st0" d="M9066,1062.1c-25-10-55-85-55-142c-1-28-7-51-16-59c-10-9-67-11-209-9c-107,2-198,1-201-3c-10-10,5-55,27-77
		c13-15,26-20,39-16c11,4,79,11,152,15c73,5,186,14,252,20c182,17,320,1,313-37c-5-26-38-31-218-32c-91-1-192-6-225-12
		c-33-5-154-10-270-10s-228-5-250-11c-22-5-123-14-225-19s-216-13-255-18c-38-6-117-10-175-11c-58,0-150-7-205-15s-143-15-195-15
		s-138-7-190-15s-135-15-183-15c-82,0-89,2-94,21c-5,16-11,19-30,14c-29-7-40,5-75,75c-13,25-29,51-35,58c-7,7-13,19-13,27
		c0,7-7,15-15,19c-8,3-15,14-15,24c0,11-7,25-15,32s-15,19-15,26c0,8-4,14-8,14c-5,0-17,20-27,44c-30,73-91,87-141,34
		c-27-29-33-47-47-135c-21-134-18-143,44-143h48l7,46c6,43,8,45,36,42c25-2,35-12,58-55c29-56,97-126,112-117c29,18,98-32,98-71
		c0-21-5-25-31-25c-33,0-52,16-69,58c-6,13-14,20-20,17c-18-11-10-35,22-64l33-29l153,4c85,2,157,6,161,8c4,3,13,1,21-4
		c7-4,23-4,36,0c44,17,465,50,714,55c162,4,304,13,410,26c47,5,127,12,178,14c51,1,98,8,106,14c7,6,20,9,29,5c8-3,24-1,34,4
		c18,10,147,21,299,26c39,2,76,6,81,9c6,4,49,7,97,8c47,1,89,5,92,10s34,9,68,9c95,0,133-40,125-135c-4-44-3-162,3-320
		c8-222-7-255-126-274c-42-7-80-10-85-7c-5,4-13,1-16-5c-4-6-17-8-29-5c-11,2-30-2-40-10c-11-8-35-14-53-14c-19,0-62-9-96-19
		s-89-24-122-31c-33-6-87-18-120-25s-87-16-120-20c-37-4-88-20-131-41c-39-19-88-36-110-38c-24-2-40-9-42-19c-3-16,30-28,48-17
		c20,12,50-1,50-21c0-11-13-25-31-34c-17-9-51-32-76-51c-69-53-197-110-308-137c-161-40-300-70-405-87c-30-5-86-16-125-25
		c-38-8-131-25-205-36s-146-24-160-30c-13-6-56-14-95-19c-38-5-92-14-120-20c-65-14-213-40-290-50c-33-4-96-15-140-24
		s-100-19-125-22s-64-12-88-20c-23-8-59-14-79-14s-51-5-68-11c-26-10-42-9-88,6c-52,16-57,16-72,1c-9-9-46-37-82-63
		c-68-48-106-56-188-39c-16,4-61,10-100,15c-78,9-141,27-150,41c-4,6-14,10-24,10s-29,8-42,18c-13,11-36,22-50,25
		c-34,9-109,77-109,100c0,10-7,20-15,23c-8,4-15,10-15,15s7,9,15,9c22,0,18,18-6,31c-26,14-80,73-97,108c-16,33-35,65-48,82
		c-6,8-21,41-34,74s-27,65-32,71c-4,6-5,25-2,42c6,28,8,30,37,21c18-5,48-9,68-9c19,0,44-7,55-15s41-14,74-15c39,0,51,3,40,10
		c-8,5-28,10-45,10c-16,0-43,7-59,15c-15,8-46,15-67,15c-22,0-50,6-62,14c-12,8-38,17-57,21s-42,13-50,20c-20,18-66,29-73,17
		c-6-9,49-170,64-186c5-6,9-17,9-25c0-9,7-29,15-45c8-15,15-37,15-47s9-24,20-31s20-20,20-29s7-20,16-23c12-4,14-13,10-32
		c-6-22-4-25,13-19c18,5,19,3,14-29c-6-37,9-50,21-19c6,15,8,15,16,3c7-10,5-19-5-26c-15-11-15-12,35-71c5-7,10-16,10-20
		s16-26,36-48c19-22,47-54,60-70c23-30,84-65,169-101c70-29,148-43,232-44c77,0,117,5,238,32c27,6,77,14,110,18c67,9,148,24,242,46
		c34,8,77,14,96,14s54,7,77,15s59,15,80,15c20,0,59,7,86,15s63,15,79,15c17,0,59,6,95,14c96,22,178,37,240,46s144,24,240,46
		c36,8,79,14,97,14c17,0,44,5,60,11c15,6,60,15,98,19c67,8,116,18,215,42c25,6,68,14,95,19c28,4,70,13,95,19c72,18,132,32,175,40
		c53,10,95,26,185,69c86,41,207,152,259,236l30,50l78,12c43,7,112,17,153,22c41,5,95,13,120,19s70,16,100,21c30,6,98,19,150,30
		s131,25,175,30c116,15,212,36,229,51c14,11,16,64,16,425v413l-39,31c-21,17-43,31-47,31c-10,1-113,140-129,173c-14,29-65,82-92,96
		C9159,1072.1,9095,1074.1,9066,1062.1z M9178,895.1c29-20,28-42-3-50c-42-10-71,26-43,54C9147,914.1,9151,914.1,9178,895.1z
		 M5078-756.9c2-7-3-12-12-12s-16,7-16,16C5050-735.9,5072-738.9,5078-756.9z M5155-843.9c17-18,23-31,16-33c-6-2-21,8-33,23
		s-30,35-41,45c-11,11-16,24-12,31c6,9,13,5,26-12C5120-802.9,5140-826.9,5155-843.9z"/>
	<path class="st0" d="M4480,961.1c0-37,4-50,13-47c7,2,12,21,12,47s-5,45-12,48C4484,1011.1,4480,998.1,4480,961.1z"/>
	<path class="st0" d="M4810,985.1c0-14,8-16,53-10c28,3,61,6,72,7c32,2-34,16-82,18C4819,1001.1,4810,997.1,4810,985.1z"/>
	<path class="st0" d="M5003,984.1c9-2,25-2,35,0c9,3,1,5-18,5S4993,987.1,5003,984.1z"/>
	<path class="st0" d="M5189,954.1c30-6,160-106,183-141c28-43,68-53,68-17c0,18-97,104-126,111c-13,3-24,9-24,13c0,12-75,41-101,40
		l-24-2L5189,954.1z"/>
	<path class="st0" d="M2789,943.1c-15-2-37-14-50-28l-22-24l24,1c13,0,41,8,63,18c30,13,35,19,25,27
		C2821,942.1,2803,945.1,2789,943.1z"/>
	<path class="st0" d="M4636,932.1c-34-7-46-28-21-37c10-4,25,1,38,14C4678,935.1,4675,939.1,4636,932.1z"/>
	<path class="st0" d="M4820,889.1c0-41,2-45,33-56c18-7,65-12,103-12s105-7,149-15c87-15,185-20,185-7s-69,62-117,83
		c-40,17-72,21-185,23c-95,1-141,6-152,15C4822,932.1,4820,928.1,4820,889.1z"/>
	<path class="st0" d="M4186,840.1c-3-8-7-52-10-99c-3-47-7-107-10-135c-3-27-10-117-15-200c-6-82-15-175-20-205s-10-99-10-152
		c-1-89,1-98,21-112c12-9,40-16,61-16c20,0,54-7,74-15c19-8,48-15,63-15s47-7,70-15s57-15,74-15c17-1,42-7,56-15s44-14,66-15
		c30,0,46-6,55-19c12-18,22-19,82-14c91,8,86,26-18,70c-128,54-157,64-213,73c-30,5-61,15-71,24c-12,11-28,14-54,9c-25-4-37-2-37,6
		c0,21-49,33-73,16c-15-11-24-12-34-3c-19,15-16,55,5,68c14,8,11,10-18,8l-35-3l1,75c2,100,14,221,26,243c5,9,16,17,26,17
		c16,1,16,1,0,13c-28,22-34,68-12,85c13,10,15,16,7,19c-9,3-13,31-13,88c0,78,2,85,26,104c14,11,34,23,45,26c10,4,19,13,19,20
		c0,23,21,30,103,35c42,3,77,9,78,14c1,19-80,37-193,43C4212,853.1,4190,851.1,4186,840.1z"/>
	<path class="st0" d="M4640,830.1c0-21,2-22,81-16c74,5,99,11,88,21c-2,2-41,7-86,10C4642,852.1,4640,852.1,4640,830.1z"/>
	<path class="st0" d="M4563,798.1c10-8,34-15,54-15c48,0,28,18-28,24C4549,812.1,4547,811.1,4563,798.1z"/>
	<path class="st0" d="M3916,783.1c-9-15,9-175,23-200c6-12,21-22,32-22c31,0,23,54-8,58c-18,3-23,10-23,31c0,16,7,34,15,41
		c11,9,15,27,13,54c-2,33-7,42-25,44C3932,791.1,3919,788.1,3916,783.1z"/>
	<path class="st0" d="M4593,757.1c-4-8-17-15-28-17c-11-3-24-16-29-31c-8-23-6-30,15-47c33-28,39-26,39,13c0,18,7,39,15,46
		c17,14,21,50,5,50C4605,771.1,4597,765.1,4593,757.1z"/>
	<path class="st0" d="M4676,734.1c-3-3-6-31-6-60c0-53-1-54-37-71c-34-14-36-16-15-20c38-6,82,51,82,104
		C4700,728.1,4690,748.1,4676,734.1z"/>
	<path class="st0" d="M8193,714.1c26-2,67-2,90,0s2,3-48,3C8186,717.1,8167,716.1,8193,714.1z"/>
	<path class="st0" d="M7753,684.1c20-2,54-2,75,0c20,2,3,4-38,4S7732,686.1,7753,684.1z"/>
	<path class="st0" d="M7110,651.1c0-12,153-12,245,0c47,5,27,7-92,9C7167,660.1,7110,657.1,7110,651.1z"/>
	<path class="st0" d="M5972,616.1c-7-14-12-37-12-51s-5-35-11-46c-10-19-6-27,39-70s55-48,96-48c50,0,54,4,31,26c-8,9-15,24-15,35
		c0,23-15,25-24,4c-6-17-46-21-46-4c0,6-7,17-15,25c-8,9-16,34-17,57s-2,52-3,64C5994,641.1,5985,644.1,5972,616.1z"/>
	<path class="st0" d="M5187,470.1c-32-24-70-105-61-131c8-26,24-22,24,6c0,13,6,26,12,28c7,3,13,15,13,28c0,30,41,43,107,35
		c56-7,68,6,32,34C5279,497.1,5221,498.1,5187,470.1z"/>
	<path class="st0" d="M5336,402.1c-16-6-20-18-21-54c0-36-6-51-21-62c-22-15-49-98-38-116s39-4,41,21c8,87,12,94,61,110
		c50,17,56,27,32,61C5359,406.1,5355,409.1,5336,402.1z"/>
	<path class="st0" d="M5284,115.1c-6-23-2-31,25-53c36-30,37-37,11-71c-19-23-21-24-34-7c-7,9-19,17-26,17c-23,0-61,50-55,71
		c5,13,2,19-10,19c-24,0-30-30-12-62c9-17,17-35,17-43c0-19,87-95,108-95c34,0,83,75,96,145c7,33,5,35-21,35c-20,1-34,9-48,32
		C5309,145.1,5292,148.1,5284,115.1z"/>
	<path class="st0" d="M4713-240.9c2-7,19-13,37-13s35,6,38,13c2,8-9,12-38,12S4710-232.9,4713-240.9z"/>
	<path class="st0" d="M5260-367.9c0-14,39-23,86-19c61,5,45,23-23,26C5284-358.9,5260-361.9,5260-367.9z"/>
	<path class="st0" d="M5406-401.9c3-10,22-15,60-15c75-1,67,22-9,26C5411-388.9,5401-390.9,5406-401.9z"/>
	<path class="st0" d="M5540-428.9c0-5,23-10,51-10c31,0,48,4,44,10c-3,6-26,10-51,10C5560-418.9,5540-422.9,5540-428.9z"/>
	<path class="st0" d="M5674-463.9c21-16,44-19,70-9c29,11,6,24-42,24C5658-449.9,5656-450.9,5674-463.9z"/>
	<path class="st0" d="M5992-595.9c-17-7-52-81-52-110c0-13-4-23-9-23c-4,0-20-18-35-40c-15-23-38-45-51-50c-32-12-32-30,0-30
		c15,0,28,7,32,18c4,9,19,29,35,45c15,15,28,32,28,37c0,6,8,19,18,29c32,36,38,46,50,80C6026-588.9,6024-582.9,5992-595.9z"/>
	<path class="st0" d="M5740-882.9c0-7,10-16,23-20c41-11,50-6,24,14C5758-865.9,5740-862.9,5740-882.9z"/>
</g>
</svg>
