<svg xmlns="http://www.w3.org/2000/svg" viewBox="0 0 1618 1024"><path d="M666.148 56.685c-10.535 2.107-28.234 5.057-40.033 6.321-11.378 1.686-22.756 4.214-25.284 5.9-6.321 5.057-46.775 12.642-65.738 12.642-9.271 0-21.913 2.528-28.234 5.9s-22.334 7.164-35.398 8.849c-32.026 4.214-40.454 12.642-32.869 35.398 5.057 15.592 2.95 54.36-8.007 147.911l-2.528 23.177-23.177 2.528c-12.642 1.264-24.441 1.686-26.127 0.843-2.107-0.843-3.371-16.013-3.371-33.712 0-31.184-0.421-32.026-16.435-48.040-8.849-8.849-17.277-15.17-18.963-13.485-4.635 5.057-2.528 15.17 4.635 23.598 5.9 6.321 7.585 15.592 7.585 44.668-0.421 19.806-2.528 40.454-5.478 45.090-2.528 5.057-22.756 18.12-45.090 29.077-37.505 18.12-90.601 53.939-90.601 60.26 0 1.686-4.635 8.007-10.535 14.328-12.642 13.485-35.819 55.625-40.454 72.902-5.478 21.491-14.749 44.247-19.806 49.304-2.95 2.95-5.057 9.271-5.057 14.749 0 7.585-2.528 9.692-11.378 9.692-22.334 0-24.441 4.635-13.906 32.026 5.057 13.906 10.956 30.762 13.063 38.347s5.9 14.749 8.007 16.013c2.528 1.686 4.214 6.742 4.214 11.378s3.793 14.749 8.428 22.756c5.057 7.585 11.378 25.705 14.328 40.454 7.585 35.398 16.856 55.625 36.24 81.751 13.906 18.12 21.491 24.020 48.040 34.976 50.147 21.070 104.507 17.277 148.754-10.535 16.013-10.114 47.618-48.461 47.618-57.732 0-3.793 1.686-7.585 3.793-8.849s5.057-8.849 6.321-17.277c1.686-8.007 4.635-15.592 6.742-16.856 6.742-4.214 27.391 6.742 46.354 24.863 24.020 22.756 48.040 32.026 90.601 34.976 25.705 1.686 37.505 0.843 50.147-4.635 18.963-8.007 36.24-8.428 65.738-2.107l21.491 4.635 16.013 34.133c8.849 18.963 23.598 44.247 32.869 56.467 18.542 24.441 49.725 51.832 58.574 51.832 3.371 0 5.9 1.686 5.9 3.793 0 5.478 36.24 17.277 67.424 22.334 52.675 8.007 99.029-4.635 229.663-61.946 11.799-5.057 38.347-16.435 58.996-24.863 21.070-8.849 43.826-18.12 50.568-21.491 7.164-2.95 23.598-9.692 36.662-15.17 13.485-5.057 34.976-18.12 48.040-28.655 29.498-24.020 26.548-22.334 67.002-38.347 18.542-7.585 46.775-18.963 62.788-25.705s32.026-12.221 36.24-12.221c16.435 0 18.12-9.692 15.17-74.588-1.686-33.712-3.793-63.21-4.635-64.895-1.264-1.686-24.441-4.214-51.411-5.478-67.845-3.793-65.738-2.95-79.223-29.919-13.063-25.705-52.675-67.845-74.588-78.802-54.36-27.391-41.719-26.127-204.379-24.863-144.54 0.843-148.333 0.843-152.547-7.585-2.95-5.057-4.635-42.561-4.635-99.45 0-76.695-0.843-91.444-6.321-93.129-4.214-1.686-6.321-8.428-6.321-18.542 0-8.849-2.95-18.12-6.321-21.070-3.793-3.371-6.321-12.642-6.321-25.284s-2.528-21.913-6.321-25.284c-8.007-6.742-8.428-26.97-0.421-33.291 2.95-2.528 18.12-5.9 33.712-7.585 30.762-2.95 40.454 1.686 40.454 18.12 0 5.057 2.107 10.956 4.214 12.221 2.528 1.264 4.214 5.9 4.214 10.535 0 4.214 2.95 8.428 6.321 10.114 3.371 1.264 6.321 7.164 6.321 13.063 0 6.321 2.528 10.535 5.9 10.535 10.114 0 7.585-41.297-2.95-46.775-6.321-3.793-7.585-7.585-5.478-17.277s0.421-15.17-7.164-22.756c-7.585-8.428-13.485-10.114-34.976-10.114-13.906 0-27.391-2.107-30.341-5.057-2.528-2.528-13.906-6.321-24.863-8.007-11.378-1.686-40.876-8.007-66.581-14.328-122.206-29.077-133.584-30.762-174.881-22.756zM671.205 113.996c4.635 4.214 7.585 12.642 7.585 22.334 0 8.849 2.95 18.12 6.321 21.070s6.321 10.535 6.321 16.856c0 6.321 2.95 19.806 6.742 29.919 5.9 15.592 7.164 38.769 7.585 141.169l0.421 123.049-10.535 8.428c-19.806 16.013-46.775 27.391-51.832 22.334-3.793-3.793-5.478-56.889-6.321-190.472-1.686-171.931-1.264-186.258 5.9-193.844 8.849-9.692 17.699-10.114 27.812-0.843zM747.478 127.902c16.856 2.528 46.354 7.164 66.16 10.535s42.983 7.164 51.832 8.428c13.485 2.107 15.592 3.793 15.592 14.328 0 6.321 2.95 15.17 6.321 19.806 3.371 4.214 6.321 10.956 6.321 14.749s2.95 9.271 6.321 12.221c3.371 2.95 6.321 9.692 6.321 14.749 0 5.478 2.95 10.535 6.321 12.221 9.271 3.371 9.692 238.512 0.421 238.512-2.95 0-6.742-3.793-8.007-8.849-1.686-6.321-4.635-8.007-10.114-6.321-10.956 3.371-140.326 6.742-153.811 3.793l-11.378-2.107-1.686-112.514c-1.686-94.815-3.371-118.835-10.956-154.232-14.749-67.424-15.17-69.531-7.164-69.531 4.214 0 21.070 2.107 37.505 4.214zM603.359 137.173c2.95 29.498 0.843 182.466-2.528 187.101-2.107 2.95-16.013 6.742-30.341 8.428l-26.548 2.95-8.007-18.542c-6.742-15.17-8.428-28.655-8.428-74.588 0-30.762-1.264-57.31-2.107-59.417-1.264-1.686 0-10.956 2.528-20.227 2.95-12.642 7.164-18.542 15.592-21.913 25.284-9.692 58.996-11.799 59.839-3.793zM514.865 158.242c2.107 37.505-0.843 174.038-3.793 176.988-1.686 1.686-12.221 4.214-23.177 5.057-18.12 1.264-21.070 0-28.655-10.956-9.692-13.485-9.692-31.605 1.686-116.306 7.585-55.203 12.642-64.053 37.505-64.053 13.485 0 16.013 1.264 16.435 9.271zM607.152 365.992c2.95 3.793 5.478 28.655 7.164 68.688 1.686 54.36 0.843 63.21-5.057 68.267-8.428 7.164-91.022 6.321-95.236-0.843-1.686-2.528-5.057-16.013-8.007-30.341-2.528-13.906-8.428-40.876-12.642-59.417-5.9-25.705-6.321-34.976-2.528-39.19 2.95-2.528 21.913-6.742 42.561-8.849 57.732-5.478 67.845-5.057 73.745 1.686z"/></svg>